<svg id="Group_2" data-name="Group 2" xmlns="http://www.w3.org/2000/svg" width="71" height="71" viewBox="0 0 71 71">
  <circle id="Ellipse_2" data-name="Ellipse 2" cx="35.5" cy="35.5" r="35.5" fill="#f63847"/>
  <path id="Path_4" data-name="Path 4" d="M16.948,22.948h-4.3v4.3h4.3Zm8.6,0h-4.3v4.3h4.3Zm8.6,0h-4.3v4.3h4.3ZM38.446,7.9H36.3V3.6H32V7.9H14.8V3.6H10.5V7.9H8.349a4.28,4.28,0,0,0-4.278,4.3L4.05,42.3a4.3,4.3,0,0,0,4.3,4.3h30.1a4.312,4.312,0,0,0,4.3-4.3V12.2A4.312,4.312,0,0,0,38.446,7.9Zm0,34.4H8.349V18.648h30.1Z" transform="translate(12.073 10.731)" fill="#fff"/>
</svg>
