<svg xmlns="http://www.w3.org/2000/svg" width="73" height="73" viewBox="0 0 73 73">
  <g id="Group_1" data-name="Group 1" transform="translate(-841 -503)">
    <circle id="Ellipse_1" data-name="Ellipse 1" cx="36.5" cy="36.5" r="36.5" transform="translate(841 503)" fill="#3fb223"/>
    <path id="Path_3" data-name="Path 3" d="M13.7,19.75c-5.675-1.475-7.5-3-7.5-5.375,0-2.725,2.525-4.625,6.75-4.625,4.45,0,6.1,2.125,6.25,5.25h5.525A9.966,9.966,0,0,0,16.7,5.475V0H9.2V5.4C4.35,6.45.45,9.6.45,14.425c0,5.775,4.775,8.65,11.75,10.325,6.25,1.5,7.5,3.7,7.5,6.025,0,1.725-1.225,4.475-6.75,4.475-5.15,0-7.175-2.3-7.45-5.25H0c.3,5.475,4.4,8.55,9.2,9.575V45h7.5V39.625c4.875-.925,8.75-3.75,8.75-8.875C25.45,23.65,19.375,21.225,13.7,19.75Z" transform="translate(865 517)" fill="#fff"/>
  </g>
</svg>
