<svg xmlns="http://www.w3.org/2000/svg" width="130.571" height="93.265" viewBox="0 0 130.571 93.265">
  <path id="Path_6" data-name="Path 6" d="M118.33,0H12.241C5.491,0,0,5.229,0,11.658V81.607c0,6.428,5.491,11.658,12.241,11.658H118.33c6.75,0,12.241-5.229,12.241-11.658V11.658C130.571,5.229,125.08,0,118.33,0Zm0,7.772a4.233,4.233,0,0,1,1.564.3L65.285,53.148,10.677,8.073a4.237,4.237,0,0,1,1.564-.3Zm0,77.721H12.241a3.989,3.989,0,0,1-4.08-3.886V16.284L62.612,61.228a4.242,4.242,0,0,0,5.348,0L122.41,16.284V81.607A3.99,3.99,0,0,1,118.33,85.493Z" fill="#34407d"/>
</svg>
