<svg xmlns="http://www.w3.org/2000/svg" width="110.5" height="110" viewBox="0 0 110.5 110">
  <g id="Group_3" data-name="Group 3" transform="translate(-1002.5 -485.5)">
    <path id="Path_3" data-name="Path 3" d="M14.635,4.165H5.041V9.228A4.342,4.342,0,0,1,6.818,7.985a6.083,6.083,0,0,1,2.458-.5,6.713,6.713,0,0,1,3.879,1.036,5.981,5.981,0,0,1,2.191,2.665,8.672,8.672,0,0,1,.681,3.435,7.659,7.659,0,0,1-1.954,5.478,7.145,7.145,0,0,1-5.507,2.073A8.118,8.118,0,0,1,3.176,20.48,6.334,6.334,0,0,1,.9,16.068H4.923a3.208,3.208,0,0,0,1.184,1.895,3.887,3.887,0,0,0,2.4.711,3.192,3.192,0,0,0,2.635-1.1,4.467,4.467,0,0,0,.888-2.9,3.847,3.847,0,0,0-.918-2.783,3.383,3.383,0,0,0-2.635-.977,3.357,3.357,0,0,0-2.073.622A3.392,3.392,0,0,0,5.219,13.2H1.251V.523H14.635Zm4.547,6.928q0-5.122,1.836-8.024,1.865-2.9,6.159-2.9T33.3,3.07q1.865,2.9,1.865,8.024,0,5.152-1.865,8.083-1.836,2.931-6.129,2.931t-6.159-2.931Q19.181,16.246,19.181,11.094Zm11.9,0a19.137,19.137,0,0,0-.3-3.672,4.813,4.813,0,0,0-1.125-2.458,3.129,3.129,0,0,0-2.487-.947,3.224,3.224,0,0,0-2.517.947,5.158,5.158,0,0,0-1.125,2.458,21.212,21.212,0,0,0-.266,3.672,22.715,22.715,0,0,0,.266,3.79,4.813,4.813,0,0,0,1.125,2.458,3.281,3.281,0,0,0,2.517.918,3.281,3.281,0,0,0,2.517-.918,4.813,4.813,0,0,0,1.125-2.458A22.715,22.715,0,0,0,31.084,11.094Zm6.765-5.211a4.7,4.7,0,0,1,1.3-3.523,4.728,4.728,0,0,1,3.405-1.273,4.625,4.625,0,0,1,3.375,1.273,4.642,4.642,0,0,1,1.332,3.523,4.681,4.681,0,0,1-1.332,3.553,4.625,4.625,0,0,1-3.375,1.273,4.728,4.728,0,0,1-3.405-1.273A4.74,4.74,0,0,1,37.849,5.883ZM56.858,1.441,45.222,22.167H41.195L52.8,1.441ZM42.527,3.573q-1.628,0-1.628,2.309,0,2.339,1.628,2.339a1.494,1.494,0,0,0,1.244-.563,2.945,2.945,0,0,0,.444-1.777Q44.215,3.573,42.527,3.573ZM50.847,17.7a4.64,4.64,0,0,1,1.3-3.523A4.728,4.728,0,0,1,55.555,12.9,4.524,4.524,0,0,1,58.9,14.173,4.64,4.64,0,0,1,60.2,17.7a4.74,4.74,0,0,1-1.3,3.553,4.524,4.524,0,0,1-3.346,1.273A4.664,4.664,0,0,1,52.15,21.25,4.74,4.74,0,0,1,50.847,17.7Zm4.678-2.309q-1.688,0-1.688,2.309,0,2.339,1.688,2.339,1.658,0,1.658-2.339Q57.184,15.387,55.526,15.387Z" transform="translate(1028.104 528.832)" fill="#30a7c1"/>
    <circle id="Ellipse_3" data-name="Ellipse 3" cx="53.5" cy="53.5" r="53.5" transform="translate(1005 487)" fill="none" stroke="#babdbd" stroke-width="2"/>
    <path id="Path_4" data-name="Path 4" d="M56.654,108C27.022,108,3,84.495,3,55.5S27.022,3,56.654,3" transform="translate(1002 485)" fill="none" stroke="#30a7c1" stroke-linecap="round" stroke-width="5"/>
  </g>
</svg>
