<svg xmlns="http://www.w3.org/2000/svg" width="72.331" height="73.898" viewBox="0 0 72.331 73.898">
  <g id="Group_1" data-name="Group 1" transform="translate(1 1)">
    <ellipse id="Ellipse_2" data-name="Ellipse 2" cx="35.132" cy="35.132" rx="35.132" ry="35.132" transform="translate(0.817 0.817)" fill="none" stroke="#68cce2" stroke-width="0.5"/>
    <path id="Path_3" data-name="Path 3" d="M36.949,72.9a35.949,35.949,0,1,1,0-71.9" transform="translate(-1 -1)" fill="none" stroke="#fff" stroke-linecap="round" stroke-width="2"/>
    <path id="Path_4" data-name="Path 4" d="M14.572,12.189H8.219v3.353A2.875,2.875,0,0,1,9.4,14.719a4.028,4.028,0,0,1,1.628-.333,4.446,4.446,0,0,1,2.569.686,3.961,3.961,0,0,1,1.451,1.765,5.743,5.743,0,0,1,.451,2.275A5.072,5.072,0,0,1,14.2,22.739a4.732,4.732,0,0,1-3.647,1.373,5.376,5.376,0,0,1-3.569-1.118,4.2,4.2,0,0,1-1.51-2.922H8.141a2.124,2.124,0,0,0,.784,1.255,2.574,2.574,0,0,0,1.588.471,2.114,2.114,0,0,0,1.745-.726,2.958,2.958,0,0,0,.588-1.922,2.548,2.548,0,0,0-.608-1.843,2.24,2.24,0,0,0-1.745-.647,2.223,2.223,0,0,0-1.373.412,2.246,2.246,0,0,0-.784,1.1H5.709V9.777h8.863Zm3.011,4.588A9.9,9.9,0,0,1,18.8,11.464a4.478,4.478,0,0,1,4.078-1.922,4.43,4.43,0,0,1,4.059,1.922,9.775,9.775,0,0,1,1.235,5.314,9.923,9.923,0,0,1-1.235,5.353,4.415,4.415,0,0,1-4.059,1.941A4.463,4.463,0,0,1,18.8,22.131,10.051,10.051,0,0,1,17.583,16.778Zm7.883,0a12.673,12.673,0,0,0-.2-2.431,3.188,3.188,0,0,0-.745-1.628,2.072,2.072,0,0,0-1.647-.627,2.135,2.135,0,0,0-1.667.627,3.416,3.416,0,0,0-.745,1.628,14.047,14.047,0,0,0-.176,2.431,15.043,15.043,0,0,0,.176,2.51,3.188,3.188,0,0,0,.745,1.628,2.173,2.173,0,0,0,1.667.608,2.173,2.173,0,0,0,1.667-.608,3.188,3.188,0,0,0,.745-1.628A15.043,15.043,0,0,0,25.466,16.778Zm4.48-3.451a2.94,2.94,0,0,1,3.118-3.177,2.966,2.966,0,0,1,3.118,3.177,3.1,3.1,0,0,1-.882,2.353,3.063,3.063,0,0,1-2.235.843,2.942,2.942,0,0,1-3.118-3.2Zm12.589-2.941L34.829,24.111H32.162l7.687-13.726ZM33.044,11.8q-1.078,0-1.078,1.529,0,1.549,1.078,1.549a.99.99,0,0,0,.824-.373,1.951,1.951,0,0,0,.294-1.177Q34.162,11.8,33.044,11.8Zm5.51,9.353a3.073,3.073,0,0,1,.863-2.333,3.131,3.131,0,0,1,2.255-.843,3,3,0,0,1,2.216.843,3.073,3.073,0,0,1,.863,2.333,3.139,3.139,0,0,1-.863,2.353,3,3,0,0,1-2.216.843,3.089,3.089,0,0,1-2.255-.843A3.139,3.139,0,0,1,38.554,21.15Zm3.1-1.529q-1.118,0-1.118,1.529,0,1.549,1.118,1.549,1.1,0,1.1-1.549Q42.751,19.621,41.653,19.621Z" transform="translate(9.147 18.374)" fill="#fff"/>
  </g>
</svg>
